#!OML:ASF F:\VICON\USERDATA\INSTALL\rory3\rory3.ASF
:FULLY-SPECIFIED
:DEGREES
2466
root 0.0423407 17.6668 -2.19393 -533.377 -152.467 541.35
lowerback 6.79929 0.13922 -4.90544
upperback 1.5128 -0.14801 0.796412
thorax -2.23336 -0.0501786 3.59535
lowerneck -17.4469 -7.32271 -14.8741
upperneck -30.479 -6.05753 15.2146
head -5.57562 -2.53353 7.66503
rclavicle -5.20816e-014 3.75703e-014
rhumerus -26.3468 -13.9546 -65.449
rradius 40.5281
rwrist 9.44752
rhand -25.2095 3.46594
rfingers 7.12502
rthumb 1.30924 -26.5098
lclavicle -5.20816e-014 3.75703e-014
lhumerus -19.521 -5.47977 73.6365
lradius 73.8327
lwrist 4.74167
lhand -28.4863 21.4133
lfingers 7.12502
lthumb -1.85558 51.385
rfemur -26.6349 -1.30799 8.43765
rtibia 47.0404
rfoot -18.6385 -6.49884
rtoes -8.86136
lfemur -14.0409 -1.57565 -18.3032
ltibia 27.252
lfoot -17.1935 2.90765
ltoes -9.2164
2467
root 0.0898573 17.6782 -2.1972 -533.405 -151.897 541.404
lowerback 6.68076 0.15711 -5.23536
upperback 1.49709 -0.139282 0.867397
thorax -2.18289 -0.0450041 3.85426
lowerneck -17.5268 -7.24728 -15.076
upperneck -30.3287 -5.91143 15.3383
head -5.52122 -2.45064 7.74062
rclavicle -7.1314e-015 7.95139e-016
rhumerus -26.1983 -12.9542 -65.9161
rradius 41.2996
rwrist 10.4308
rhand -24.9118 4.2631
rfingers 7.12502
rthumb 1.59678 -25.7107
lclavicle -7.1314e-015 7.95139e-016
lhumerus -19.054 -5.79633 73.4572
lradius 73.8931
lwrist 4.60709
lhand -28.3884 21.0625
lfingers 7.12502
lthumb -1.76099 51.035
rfemur -27.042 -1.84775 8.99535
rtibia 48.396
rfoot -18.4478 -6.47101
rtoes -9.20901
lfemur -14.0114 -1.25161 -18.5364
ltibia 27.1823
lfoot -17.2205 2.91345
ltoes -7.20602
2468
root 0.134921 17.6834 -2.20132 -533.433 -151.475 541.44
lowerback 6.51964 0.140344 -5.45287
upperback 1.58497 -0.165579 0.867119
thorax -1.99818 -0.0645415 3.97777
lowerneck -17.683 -7.19576 -15.062
upperneck -30.4174 -5.8141 15.4408
head -5.53784 -2.41002 7.78218
rclavicle -4.33848e-014 -7.15625e-015
rhumerus -25.9786 -12.2024 -66.4812
rradius 42.0641
rwrist 11.4422
rhand -24.3036 5.32214
rfingers 7.12502
rthumb 2.18418 -24.6464
lclavicle -4.33848e-014 -7.15625e-015
lhumerus -18.4176 -6.21119 73.1085
lradius 74.0136
lwrist 4.6146
lhand -27.9865 20.9663
lfingers 7.12502
lthumb -1.37287 50.9416
rfemur -27.381 -2.5667 9.59253
rtibia 49.7425
rfoot -18.3884 -6.38415
rtoes -8.7468
lfemur -13.9738 -0.986803 -18.7335
ltibia 27.1111
lfoot -17.2196 3.0042
ltoes -7.23638
2469
root 0.179379 17.6802 -2.20694 -533.511 -151.201 541.534
lowerback 6.47896 0.048796 -5.73718
upperback 1.57166 -0.302724 0.923899
thorax -1.97192 -0.132225 4.2085
lowerneck -17.7558 -7.09821 -15.1398
upperneck -30.2917 -5.66472 15.51
head -5.50087 -2.33592 7.81954
rclavicle 4.78326e-014 3.37934e-015
rhumerus -25.7454 -11.4866 -66.9583
rradius 42.6008
rwrist 12.7099
rhand -23.8989 6.44689
rfingers 7.12502
rthumb 2.57498 -23.5173
lclavicle 4.78326e-014 3.37934e-015
lhumerus -17.9889 -6.59125 72.8778
lradius 74.0387
lwrist 4.59552
lhand -27.8669 20.9514
lfingers 7.12502
lthumb -1.2574 50.9274
rfemur -27.6776 -3.42257 10.1465
rtibia 51.071
rfoot -18.4761 -6.46
rtoes -8.59767
lfemur -13.9158 -0.820254 -18.9594
ltibia 27.0184
lfoot -17.2011 3.06188
ltoes -8.36921
2470
root 0.224197 17.6782 -2.21284 -533.627 -150.905 541.643
lowerback 6.60147 -0.0668687 -6.10274
upperback 1.3995 -0.48881 1.07671
thorax -2.19235 -0.211472 4.59245
lowerneck -17.4242 -6.89141 -15.3063
upperneck -30.2233 -5.44077 15.4118
head -5.5598 -2.2189 7.83335
rclavicle 2.18663e-015 -9.0447e-015
rhumerus -25.6794 -10.5004 -67.3757
rradius 43.1426
rwrist 13.8534
rhand -24.0976 7.15139
rfingers 7.12502
rthumb 2.38307 -22.815
lclavicle 2.18663e-015 -9.0447e-015
lhumerus -17.8327 -6.92534 72.7995
lradius 74.0065
lwrist 4.88197
lhand -27.9629 20.8149
lfingers 7.12502
lthumb -1.35008 50.7904
rfemur -27.934 -4.18917 10.6742
rtibia 52.3396
rfoot -18.5699 -6.60807
rtoes -8.15716
lfemur -13.8921 -0.408352 -19.1936
ltibia 26.9603
lfoot -17.1825 2.83013
ltoes -7.77832
2471
root 0.267308 17.6773 -2.21198 -533.727 -150.643 541.728
lowerback 6.59856 -0.181926 -6.31868
upperback 1.29642 -0.657155 1.13963
thorax -2.27334 -0.288353 4.7953
lowerneck -17.1135 -6.67904 -15.2896
upperneck -30.2755 -5.22993 15.2882
head -5.66099 -2.12401 7.81183
rclavicle -2.93207e-014 1.43125e-014
rhumerus -25.6441 -9.51674 -67.9268
rradius 43.7553
rwrist 14.419
rhand -24.2589 7.10078
rfingers 7.12502
rthumb 2.22728 -22.8673
lclavicle -2.93207e-014 1.43125e-014
lhumerus -17.609 -7.40577 72.5997
lradius 74.0126
lwrist 5.12656
lhand -27.8692 20.6142
lfingers 7.12502
lthumb -1.2596 50.5902
rfemur -28.1052 -5.01302 11.1907
rtibia 53.5226
rfoot -18.8125 -6.56997
rtoes -6.8105
lfemur -13.8337 -0.399008 -19.4057
ltibia 26.928
lfoot -17.2563 2.9152
ltoes -6.73959
2472
root 0.311209 17.681 -2.21118 -533.544 -150.6 541.674
lowerback 6.38606 -0.336995 -6.26748
upperback 1.24937 -0.846264 1.15237
thorax -2.17956 -0.384747 4.79173
lowerneck -17.3703 -6.62325 -15.1864
upperneck -30.0658 -5.15283 15.2536
head -5.57168 -2.09264 7.76608
rclavicle -3.31722e-014 -5.96354e-016
rhumerus -25.7025 -8.82638 -68.4468
rradius 44.6331
rwrist 14.7609
rhand -24.242 7.61444
rfingers 7.12502
rthumb 2.24363 -22.3535
lclavicle -3.31722e-014 -5.96354e-016
lhumerus -17.0657 -7.94005 72.3138
lradius 73.9245
lwrist 5.07314
lhand -27.7132 20.6567
lfingers 7.12502
lthumb -1.10892 50.6336
rfemur -28.4422 -5.9067 11.8676
rtibia 54.5979
rfoot -19.0798 -6.73915
rtoes -5.96176
lfemur -14.0496 -0.694102 -19.4765
ltibia 26.9131
lfoot -17.2814 3.1195
ltoes -6.30235
2473
root 0.350605 17.6837 -2.21086 -533.428 -150.421 541.67
lowerback 6.21673 -0.353486 -6.28525
upperback 1.24853 -0.858732 1.1246
thorax -2.08434 -0.394128 4.77078
lowerneck -17.7612 -6.68409 -15.1018
upperneck -29.8887 -5.20227 15.2636
head -5.45345 -2.11783 7.73085
rclavicle -3.98563e-014 1.0138e-014
rhumerus -26.003 -8.41337 -68.8129
rradius 45.7376
rwrist 15.0853
rhand -24.3356 8.25913
rfingers 7.12502
rthumb 2.15325 -21.7097
lclavicle -3.98563e-014 1.0138e-014
lhumerus -16.3401 -8.64776 72.0917
lradius 73.8117
lwrist 4.93275
lhand -27.6741 21.1268
lfingers 7.12502
lthumb -1.07116 51.1038
rfemur -28.7468 -6.68417 12.516
rtibia 55.594
rfoot -19.198 -7.04341
rtoes -6.2833
lfemur -14.1703 -0.63365 -19.598
ltibia 26.837
lfoot -17.2984 3.16439
ltoes -6.35909
2474
root 0.388215 17.6811 -2.20795 -533.565 -150.052 541.941
lowerback 6.13592 -0.395418 -6.63977
upperback 1.20569 -0.933472 1.10447
thorax -2.06826 -0.428783 4.9553
lowerneck -17.8031 -6.59386 -15.2102
upperneck -29.8197 -5.05281 15.3703
head -5.43708 -2.04188 7.79115
rclavicle -4.96713e-014 1.83876e-014
rhumerus -26.0998 -7.7861 -69.2908
rradius 46.4984
rwrist 15.1796
rhand -24.4138 8.03617
rfingers 7.12502
rthumb 2.07776 -21.9335
lclavicle -4.96713e-014 1.83876e-014
lhumerus -15.967 -9.03677 71.9607
lradius 73.7662
lwrist 4.71887
lhand -27.6246 21.4202
lfingers 7.12502
lthumb -1.02335 51.3975
rfemur -28.9138 -7.41538 12.8481
rtibia 56.5083
rfoot -19.2424 -7.15488
rtoes -6.50574
lfemur -14.1229 -0.520156 -20.0132
ltibia 26.7562
lfoot -17.3556 3.33752
ltoes -6.05168
2475
root 0.423422 17.678 -2.20072 -533.826 -149.665 542.369
lowerback 6.02793 -0.495155 -7.18127
upperback 1.04941 -1.096 1.14926
thorax -2.13687 -0.499085 5.32114
lowerneck -17.2584 -6.35653 -15.5239
upperneck -29.8971 -4.76222 15.4363
head -5.56988 -1.89051 7.90529
rclavicle 2.64384e-014 2.68359e-015
rhumerus -26.1515 -7.07728 -69.721
rradius 47.0324
rwrist 15.377
rhand -24.5223 7.87803
rfingers 7.12502
rthumb 1.97297 -22.0926
lclavicle 2.64384e-014 2.68359e-015
lhumerus -16.0174 -9.20958 72.0147
lradius 73.7199
lwrist 4.44664
lhand -27.5645 21.1079
lfingers 7.12502
lthumb -0.965311 51.0854
rfemur -28.9669 -8.1115 12.9881
rtibia 57.3362
rfoot -19.4492 -7.13764
rtoes -6.22664
lfemur -14.0089 -0.303249 -20.5868
ltibia 26.6994
lfoot -17.4223 3.44616
ltoes -5.81615
